<svg width="944" height="647" viewBox="0 0 944 647" fill="none" xmlns="http://www.w3.org/2000/svg">
<rect width="944" height="647" fill="#E5E5E5"/>
<g id="floor">
<path id="Vector" d="M170 646.564C263.888 646.564 340 636.209 340 623.436C340 610.664 263.888 600.309 170 600.309C76.1116 600.309 0 610.664 0 623.436C0 636.209 76.1116 646.564 170 646.564Z" fill="#3F3D56"/>
<path id="Vector_2" d="M68.8114 613.711C76.3696 613.711 82.4968 607.584 82.4968 600.025C82.4968 592.467 76.3696 586.34 68.8114 586.34C61.2532 586.34 55.126 592.467 55.126 600.025C55.126 607.584 61.2532 613.711 68.8114 613.711Z" fill="#6C63FF"/>
<path id="Vector_3" d="M292.603 584H256.603V620H292.603V584Z" fill="#FF6584"/>
<path id="Vector_4" d="M256.811 621.711C264.37 621.711 270.497 615.584 270.497 608.025C270.497 600.467 264.37 594.34 256.811 594.34C249.253 594.34 243.126 600.467 243.126 608.025C243.126 615.584 249.253 621.711 256.811 621.711Z" fill="#6C63FF"/>
</g>
<path id="line_top" d="M389.957 69.2818H533.957" stroke="#3F3D56" stroke-width="2" stroke-miterlimit="10"/>
<path id="line" d="M49.464 175.025H491.957L560.56 208.447L669.866 261.699L741.334 127.887H943.574" stroke="#3F3D56" stroke-width="2" stroke-miterlimit="10"/>
<g id="top_left_hand">
<path id="left_hand" d="M218.407 228.207C226.196 207.83 227.324 189.328 220.927 186.883C214.53 184.438 203.03 198.975 195.241 219.353C187.453 239.73 186.324 258.232 192.722 260.677C199.119 263.122 210.619 248.585 218.407 228.207Z" fill="#2F2E41"/>
<path id="ball_top_hand" d="M222.811 202.711C230.37 202.711 236.497 196.584 236.497 189.025C236.497 181.467 230.37 175.34 222.811 175.34C215.253 175.34 209.126 181.467 209.126 189.025C209.126 196.584 215.253 202.711 222.811 202.711Z" fill="#6C63FF"/>
</g>
<path id="ball_down" d="M560.384 222.164C567.942 222.164 574.069 216.037 574.069 208.478C574.069 200.92 567.942 194.793 560.384 194.793C552.825 194.793 546.698 200.92 546.698 208.478C546.698 216.037 552.825 222.164 560.384 222.164Z" fill="#6C63FF"/>
<g id="balls_in_line">
<path id="Vector_5" d="M350.541 188.711C358.1 188.711 364.227 182.584 364.227 175.025C364.227 167.467 358.1 161.34 350.541 161.34C342.983 161.34 336.856 167.467 336.856 175.025C336.856 182.584 342.983 188.711 350.541 188.711Z" fill="#6C63FF"/>
<path id="Vector_6" d="M855.379 141.572C862.937 141.572 869.064 135.445 869.064 127.887C869.064 120.329 862.937 114.202 855.379 114.202C847.821 114.202 841.694 120.329 841.694 127.887C841.694 135.445 847.821 141.572 855.379 141.572Z" fill="#6C63FF"/>
</g>
<path id="ball_up" d="M712.443 194.793C720.001 194.793 726.128 188.666 726.128 181.108C726.128 173.55 720.001 167.422 712.443 167.422C704.885 167.422 698.758 173.55 698.758 181.108C698.758 188.666 704.885 194.793 712.443 194.793Z" fill="#6C63FF"/>
<g id="balls_to_down">
<path id="Vector_7" d="M854.685 335.371C862.244 335.371 868.371 329.244 868.371 321.685C868.371 314.127 862.244 308 854.685 308C847.127 308 841 314.127 841 321.685C841 329.244 847.127 335.371 854.685 335.371Z" fill="#6C63FF"/>
<path id="Vector_8" d="M856.756 430.511C864.905 430.511 871.511 423.905 871.511 415.756C871.511 407.606 864.905 401 856.756 401C848.606 401 842 407.606 842 415.756C842 423.905 848.606 430.511 856.756 430.511Z" stroke="#3F3D56" stroke-width="2" stroke-miterlimit="10"/>
<path id="Vector_9" d="M852.756 211.511C860.905 211.511 867.511 204.905 867.511 196.756C867.511 188.606 860.905 182 852.756 182C844.606 182 838 188.606 838 196.756C838 204.905 844.606 211.511 852.756 211.511Z" stroke="#3F3D56" stroke-width="2" stroke-miterlimit="10"/>
</g>
<path id="bottom" d="M160.805 589.436C204.435 589.436 239.805 554.067 239.805 510.436C239.805 466.806 204.435 431.436 160.805 431.436C117.174 431.436 81.8046 466.806 81.8046 510.436C81.8046 554.067 117.174 589.436 160.805 589.436Z" fill="#2F2E41"/>
<g id="bottom_legs">
<path id="Vector_10" d="M148.805 572.436H124.805V615.436H148.805V572.436Z" fill="#2F2E41"/>
<path id="Vector_11" d="M196.805 572.436H172.805V615.436H196.805V572.436Z" fill="#2F2E41"/>
<path id="Vector_12" d="M144.805 623.436C155.85 623.436 164.805 620.079 164.805 615.936C164.805 611.794 155.85 608.436 144.805 608.436C133.759 608.436 124.805 611.794 124.805 615.936C124.805 620.079 133.759 623.436 144.805 623.436Z" fill="#2F2E41"/>
<path id="Vector_13" d="M192.805 622.436C203.85 622.436 212.805 619.079 212.805 614.936C212.805 610.794 203.85 607.436 192.805 607.436C181.759 607.436 172.805 610.794 172.805 614.936C172.805 619.079 181.759 622.436 192.805 622.436Z" fill="#2F2E41"/>
</g>
<path id="bottom_eye_white" d="M162.805 517.436C177.716 517.436 189.805 505.348 189.805 490.436C189.805 475.525 177.716 463.436 162.805 463.436C147.893 463.436 135.805 475.525 135.805 490.436C135.805 505.348 147.893 517.436 162.805 517.436Z" fill="white"/>
<path id="bottom_eye_center_" d="M162.805 499.436C167.775 499.436 171.805 495.407 171.805 490.436C171.805 485.466 167.775 481.436 162.805 481.436C157.834 481.436 153.805 485.466 153.805 490.436C153.805 495.407 157.834 499.436 162.805 499.436Z" fill="#3F3D56"/>
<path id="bottom_hat" d="M84.1719 436.969C77.793 408.401 98.1838 379.535 129.716 372.494C161.248 365.453 191.981 382.904 198.36 411.471C204.739 440.039 183.841 450.575 152.309 457.616C120.777 464.657 90.5507 465.536 84.1719 436.969Z" fill="#6C63FF"/>
<path id="top" d="M133.805 362.436C177.435 362.436 212.805 327.067 212.805 283.436C212.805 239.806 177.435 204.436 133.805 204.436C90.1741 204.436 54.8046 239.806 54.8046 283.436C54.8046 327.067 90.1741 362.436 133.805 362.436Z" fill="#2F2E41"/>
<g id="legs">
<g id="left">
<path id="Vector_14" d="M169.805 345.436H145.805V388.436H169.805V345.436Z" fill="#2F2E41"/>
<path id="Vector_15" d="M165.805 395.436C176.85 395.436 185.805 392.079 185.805 387.936C185.805 383.794 176.85 380.436 165.805 380.436C154.759 380.436 145.805 383.794 145.805 387.936C145.805 392.079 154.759 395.436 165.805 395.436Z" fill="#2F2E41"/>
</g>
<g id="right">
<path id="Vector_16" d="M121.805 345.436H97.8046V388.436H121.805V345.436Z" fill="#2F2E41"/>
<path id="Vector_17" d="M118 397C129.046 397 138 393.642 138 389.5C138 385.358 129.046 382 118 382C106.954 382 98 385.358 98 389.5C98 393.642 106.954 397 118 397Z" fill="#2F2E41"/>
</g>
</g>
<path id="top_eye_white" d="M135.805 290.436C150.716 290.436 162.805 278.348 162.805 263.436C162.805 248.525 150.716 236.436 135.805 236.436C120.893 236.436 108.805 248.525 108.805 263.436C108.805 278.348 120.893 290.436 135.805 290.436Z" fill="white"/>
<path id="top_eye_center" d="M135.805 272.436C140.775 272.436 144.805 268.407 144.805 263.436C144.805 258.466 140.775 254.436 135.805 254.436C130.834 254.436 126.805 258.466 126.805 263.436C126.805 268.407 130.834 272.436 135.805 272.436Z" fill="#3F3D56"/>
<path id="hat" d="M57.1719 209.969C50.793 181.401 71.1838 152.535 102.716 145.494C134.248 138.453 164.981 155.904 171.36 184.471C177.739 213.039 156.841 223.575 125.309 230.616C93.777 237.657 63.5507 238.536 57.1719 209.969Z" fill="#6C63FF"/>
<path id="right_hand" d="M80.5136 263.707C83.4483 257.519 69.8488 244.925 50.1381 235.576C30.4274 226.228 12.0696 223.665 9.13486 229.853C6.20009 236.041 19.7997 248.636 39.5103 257.984C59.221 267.333 77.5788 269.895 80.5136 263.707Z" fill="#2F2E41"/>
<path id="top_mouth" d="M95 311.936C95 319.668 114.909 334.936 137 334.936C159.091 334.936 179.805 313.168 179.805 305.436C179.805 297.704 159.091 306.936 137 306.936C114.909 306.936 95 304.204 95 311.936Z" fill="white"/>
<path id="red_square" d="M262.603 13H226.603V49H262.603V13Z" fill="#FF6584"/>
<path id="square" d="M253.603 1H217.603V37H253.603V1Z" stroke="#3F3D56" stroke-width="2" stroke-miterlimit="10"/>
<path id="ball_in_line" d="M461.957 82.7107C469.515 82.7107 475.642 76.5836 475.642 69.0253C475.642 61.4671 469.515 55.34 461.957 55.34C454.399 55.34 448.272 61.4671 448.272 69.0253C448.272 76.5836 454.399 82.7107 461.957 82.7107Z" fill="#6C63FF"/>
</svg>
